<mxfile host="65bd71144e">
    <diagram id="R2lEEEUBdFMjLlhIrx00" name="Page-1">
        <mxGraphModel dx="924" dy="462" grid="1" gridSize="10" guides="1" tooltips="1" connect="1" arrows="1" fold="1" page="1" pageScale="1" pageWidth="850" pageHeight="1100" math="0" shadow="0" extFonts="Permanent Marker^https://fonts.googleapis.com/css?family=Permanent+Marker">
            <root>
                <mxCell id="0"/>
                <mxCell id="1" parent="0"/>
                <mxCell id="C-vyLk0tnHw3VtMMgP7b-2" value="Dataset Versions" style="shape=table;startSize=30;container=1;collapsible=1;childLayout=tableLayout;fixedRows=1;rowLines=0;fontStyle=1;align=center;resizeLast=1;rounded=1;" parent="1" vertex="1">
                    <mxGeometry x="290" y="200" width="270" height="190" as="geometry">
                        <mxRectangle x="450" y="120" width="80" height="30" as="alternateBounds"/>
                    </mxGeometry>
                </mxCell>
                <mxCell id="C-vyLk0tnHw3VtMMgP7b-3" value="" style="shape=partialRectangle;collapsible=0;dropTarget=0;pointerEvents=0;fillColor=none;points=[[0,0.5],[1,0.5]];portConstraint=eastwest;top=0;left=0;right=0;bottom=1;" parent="C-vyLk0tnHw3VtMMgP7b-2" vertex="1">
                    <mxGeometry y="30" width="270" height="30" as="geometry"/>
                </mxCell>
                <mxCell id="C-vyLk0tnHw3VtMMgP7b-4" value="PK" style="shape=partialRectangle;overflow=hidden;connectable=0;fillColor=none;top=0;left=0;bottom=0;right=0;fontStyle=1;" parent="C-vyLk0tnHw3VtMMgP7b-3" vertex="1">
                    <mxGeometry width="30" height="30" as="geometry">
                        <mxRectangle width="30" height="30" as="alternateBounds"/>
                    </mxGeometry>
                </mxCell>
                <mxCell id="C-vyLk0tnHw3VtMMgP7b-5" value="dv_id int IDENTITY (AUTO-INCREMENT)" style="shape=partialRectangle;overflow=hidden;connectable=0;fillColor=none;top=0;left=0;bottom=0;right=0;align=left;spacingLeft=6;fontStyle=5;" parent="C-vyLk0tnHw3VtMMgP7b-3" vertex="1">
                    <mxGeometry x="30" width="240" height="30" as="geometry">
                        <mxRectangle width="240" height="30" as="alternateBounds"/>
                    </mxGeometry>
                </mxCell>
                <mxCell id="C-vyLk0tnHw3VtMMgP7b-6" value="" style="shape=partialRectangle;collapsible=0;dropTarget=0;pointerEvents=0;fillColor=none;points=[[0,0.5],[1,0.5]];portConstraint=eastwest;top=0;left=0;right=0;bottom=0;" parent="C-vyLk0tnHw3VtMMgP7b-2" vertex="1">
                    <mxGeometry y="60" width="270" height="30" as="geometry"/>
                </mxCell>
                <mxCell id="C-vyLk0tnHw3VtMMgP7b-7" value="FK" style="shape=partialRectangle;overflow=hidden;connectable=0;fillColor=none;top=0;left=0;bottom=0;right=0;" parent="C-vyLk0tnHw3VtMMgP7b-6" vertex="1">
                    <mxGeometry width="30" height="30" as="geometry">
                        <mxRectangle width="30" height="30" as="alternateBounds"/>
                    </mxGeometry>
                </mxCell>
                <mxCell id="C-vyLk0tnHw3VtMMgP7b-8" value="d_name vchar(20) NOT NULL" style="shape=partialRectangle;overflow=hidden;connectable=0;fillColor=none;top=0;left=0;bottom=0;right=0;align=left;spacingLeft=6;" parent="C-vyLk0tnHw3VtMMgP7b-6" vertex="1">
                    <mxGeometry x="30" width="240" height="30" as="geometry">
                        <mxRectangle width="240" height="30" as="alternateBounds"/>
                    </mxGeometry>
                </mxCell>
                <mxCell id="C-vyLk0tnHw3VtMMgP7b-9" value="" style="shape=partialRectangle;collapsible=0;dropTarget=0;pointerEvents=0;fillColor=none;points=[[0,0.5],[1,0.5]];portConstraint=eastwest;top=0;left=0;right=0;bottom=0;" parent="C-vyLk0tnHw3VtMMgP7b-2" vertex="1">
                    <mxGeometry y="90" width="270" height="30" as="geometry"/>
                </mxCell>
                <mxCell id="C-vyLk0tnHw3VtMMgP7b-10" value="" style="shape=partialRectangle;overflow=hidden;connectable=0;fillColor=none;top=0;left=0;bottom=0;right=0;" parent="C-vyLk0tnHw3VtMMgP7b-9" vertex="1">
                    <mxGeometry width="30" height="30" as="geometry">
                        <mxRectangle width="30" height="30" as="alternateBounds"/>
                    </mxGeometry>
                </mxCell>
                <mxCell id="C-vyLk0tnHw3VtMMgP7b-11" value="dv_createdat Timestamp NOT NULL" style="shape=partialRectangle;overflow=hidden;connectable=0;fillColor=none;top=0;left=0;bottom=0;right=0;align=left;spacingLeft=6;" parent="C-vyLk0tnHw3VtMMgP7b-9" vertex="1">
                    <mxGeometry x="30" width="240" height="30" as="geometry">
                        <mxRectangle width="240" height="30" as="alternateBounds"/>
                    </mxGeometry>
                </mxCell>
                <mxCell id="eIyMs1IFlNH8oR6tzL3q-7" value="" style="shape=partialRectangle;collapsible=0;dropTarget=0;pointerEvents=0;fillColor=none;points=[[0,0.5],[1,0.5]];portConstraint=eastwest;top=0;left=0;right=0;bottom=0;" parent="C-vyLk0tnHw3VtMMgP7b-2" vertex="1">
                    <mxGeometry y="120" width="270" height="30" as="geometry"/>
                </mxCell>
                <mxCell id="eIyMs1IFlNH8oR6tzL3q-8" value="" style="shape=partialRectangle;overflow=hidden;connectable=0;fillColor=none;top=0;left=0;bottom=0;right=0;" parent="eIyMs1IFlNH8oR6tzL3q-7" vertex="1">
                    <mxGeometry width="30" height="30" as="geometry">
                        <mxRectangle width="30" height="30" as="alternateBounds"/>
                    </mxGeometry>
                </mxCell>
                <mxCell id="eIyMs1IFlNH8oR6tzL3q-9" value="dv_description vchar(50)" style="shape=partialRectangle;overflow=hidden;connectable=0;fillColor=none;top=0;left=0;bottom=0;right=0;align=left;spacingLeft=6;" parent="eIyMs1IFlNH8oR6tzL3q-7" vertex="1">
                    <mxGeometry x="30" width="240" height="30" as="geometry">
                        <mxRectangle width="240" height="30" as="alternateBounds"/>
                    </mxGeometry>
                </mxCell>
                <mxCell id="2" value="" style="shape=partialRectangle;collapsible=0;dropTarget=0;pointerEvents=0;fillColor=none;points=[[0,0.5],[1,0.5]];portConstraint=eastwest;top=0;left=0;right=0;bottom=0;" vertex="1" parent="C-vyLk0tnHw3VtMMgP7b-2">
                    <mxGeometry y="150" width="270" height="30" as="geometry"/>
                </mxCell>
                <mxCell id="3" value="" style="shape=partialRectangle;overflow=hidden;connectable=0;fillColor=none;top=0;left=0;bottom=0;right=0;" vertex="1" parent="2">
                    <mxGeometry width="30" height="30" as="geometry">
                        <mxRectangle width="30" height="30" as="alternateBounds"/>
                    </mxGeometry>
                </mxCell>
                <mxCell id="4" value="dv_name int NOT NULL" style="shape=partialRectangle;overflow=hidden;connectable=0;fillColor=none;top=0;left=0;bottom=0;right=0;align=left;spacingLeft=6;" vertex="1" parent="2">
                    <mxGeometry x="30" width="240" height="30" as="geometry">
                        <mxRectangle width="240" height="30" as="alternateBounds"/>
                    </mxGeometry>
                </mxCell>
                <mxCell id="C-vyLk0tnHw3VtMMgP7b-13" value="&lt;&lt;d_name&gt;&gt;" style="shape=table;startSize=30;container=1;collapsible=1;childLayout=tableLayout;fixedRows=1;rowLines=0;fontStyle=1;align=center;resizeLast=1;rounded=1;" parent="1" vertex="1">
                    <mxGeometry x="640" y="60" width="290" height="100" as="geometry"/>
                </mxCell>
                <mxCell id="C-vyLk0tnHw3VtMMgP7b-14" value="" style="shape=partialRectangle;collapsible=0;dropTarget=0;pointerEvents=0;fillColor=none;points=[[0,0.5],[1,0.5]];portConstraint=eastwest;top=0;left=0;right=0;bottom=1;" parent="C-vyLk0tnHw3VtMMgP7b-13" vertex="1">
                    <mxGeometry y="30" width="290" height="30" as="geometry"/>
                </mxCell>
                <mxCell id="C-vyLk0tnHw3VtMMgP7b-15" value="PK" style="shape=partialRectangle;overflow=hidden;connectable=0;fillColor=none;top=0;left=0;bottom=0;right=0;fontStyle=1;" parent="C-vyLk0tnHw3VtMMgP7b-14" vertex="1">
                    <mxGeometry width="30" height="30" as="geometry">
                        <mxRectangle width="30" height="30" as="alternateBounds"/>
                    </mxGeometry>
                </mxCell>
                <mxCell id="C-vyLk0tnHw3VtMMgP7b-16" value="data_id int IDENTITY (AUTO-INCREMENT)" style="shape=partialRectangle;overflow=hidden;connectable=0;fillColor=none;top=0;left=0;bottom=0;right=0;align=left;spacingLeft=6;fontStyle=5;" parent="C-vyLk0tnHw3VtMMgP7b-14" vertex="1">
                    <mxGeometry x="30" width="260" height="30" as="geometry">
                        <mxRectangle width="260" height="30" as="alternateBounds"/>
                    </mxGeometry>
                </mxCell>
                <mxCell id="C-vyLk0tnHw3VtMMgP7b-20" value="" style="shape=partialRectangle;collapsible=0;dropTarget=0;pointerEvents=0;fillColor=none;points=[[0,0.5],[1,0.5]];portConstraint=eastwest;top=0;left=0;right=0;bottom=0;" parent="C-vyLk0tnHw3VtMMgP7b-13" vertex="1">
                    <mxGeometry y="60" width="290" height="30" as="geometry"/>
                </mxCell>
                <mxCell id="C-vyLk0tnHw3VtMMgP7b-21" value="" style="shape=partialRectangle;overflow=hidden;connectable=0;fillColor=none;top=0;left=0;bottom=0;right=0;" parent="C-vyLk0tnHw3VtMMgP7b-20" vertex="1">
                    <mxGeometry width="30" height="30" as="geometry">
                        <mxRectangle width="30" height="30" as="alternateBounds"/>
                    </mxGeometry>
                </mxCell>
                <mxCell id="C-vyLk0tnHw3VtMMgP7b-22" value="columns" style="shape=partialRectangle;overflow=hidden;connectable=0;fillColor=none;top=0;left=0;bottom=0;right=0;align=left;spacingLeft=6;" parent="C-vyLk0tnHw3VtMMgP7b-20" vertex="1">
                    <mxGeometry x="30" width="260" height="30" as="geometry">
                        <mxRectangle width="260" height="30" as="alternateBounds"/>
                    </mxGeometry>
                </mxCell>
                <mxCell id="C-vyLk0tnHw3VtMMgP7b-23" value="Datasets" style="shape=table;startSize=30;container=1;collapsible=1;childLayout=tableLayout;fixedRows=1;rowLines=0;fontStyle=1;align=center;resizeLast=1;rounded=1;shadow=0;" parent="1" vertex="1">
                    <mxGeometry x="310" y="40" width="250" height="100" as="geometry"/>
                </mxCell>
                <mxCell id="C-vyLk0tnHw3VtMMgP7b-24" value="" style="shape=partialRectangle;collapsible=0;dropTarget=0;pointerEvents=0;fillColor=none;points=[[0,0.5],[1,0.5]];portConstraint=eastwest;top=0;left=0;right=0;bottom=1;" parent="C-vyLk0tnHw3VtMMgP7b-23" vertex="1">
                    <mxGeometry y="30" width="250" height="30" as="geometry"/>
                </mxCell>
                <mxCell id="C-vyLk0tnHw3VtMMgP7b-25" value="PK" style="shape=partialRectangle;overflow=hidden;connectable=0;fillColor=none;top=0;left=0;bottom=0;right=0;fontStyle=1;" parent="C-vyLk0tnHw3VtMMgP7b-24" vertex="1">
                    <mxGeometry width="30" height="30" as="geometry">
                        <mxRectangle width="30" height="30" as="alternateBounds"/>
                    </mxGeometry>
                </mxCell>
                <mxCell id="C-vyLk0tnHw3VtMMgP7b-26" value="d_name vchar(20) NOT NULL " style="shape=partialRectangle;overflow=hidden;connectable=0;fillColor=none;top=0;left=0;bottom=0;right=0;align=left;spacingLeft=6;fontStyle=5;" parent="C-vyLk0tnHw3VtMMgP7b-24" vertex="1">
                    <mxGeometry x="30" width="220" height="30" as="geometry">
                        <mxRectangle width="220" height="30" as="alternateBounds"/>
                    </mxGeometry>
                </mxCell>
                <mxCell id="C-vyLk0tnHw3VtMMgP7b-27" value="" style="shape=partialRectangle;collapsible=0;dropTarget=0;pointerEvents=0;fillColor=none;points=[[0,0.5],[1,0.5]];portConstraint=eastwest;top=0;left=0;right=0;bottom=0;" parent="C-vyLk0tnHw3VtMMgP7b-23" vertex="1">
                    <mxGeometry y="60" width="250" height="30" as="geometry"/>
                </mxCell>
                <mxCell id="C-vyLk0tnHw3VtMMgP7b-28" value="" style="shape=partialRectangle;overflow=hidden;connectable=0;fillColor=none;top=0;left=0;bottom=0;right=0;" parent="C-vyLk0tnHw3VtMMgP7b-27" vertex="1">
                    <mxGeometry width="30" height="30" as="geometry">
                        <mxRectangle width="30" height="30" as="alternateBounds"/>
                    </mxGeometry>
                </mxCell>
                <mxCell id="C-vyLk0tnHw3VtMMgP7b-29" value="d_description vchar(50) " style="shape=partialRectangle;overflow=hidden;connectable=0;fillColor=none;top=0;left=0;bottom=0;right=0;align=left;spacingLeft=6;" parent="C-vyLk0tnHw3VtMMgP7b-27" vertex="1">
                    <mxGeometry x="30" width="220" height="30" as="geometry">
                        <mxRectangle width="220" height="30" as="alternateBounds"/>
                    </mxGeometry>
                </mxCell>
                <mxCell id="eIyMs1IFlNH8oR6tzL3q-11" value="Column Definition" style="shape=table;startSize=30;container=1;collapsible=1;childLayout=tableLayout;fixedRows=1;rowLines=0;fontStyle=1;align=center;resizeLast=1;rounded=1;" parent="1" vertex="1">
                    <mxGeometry x="300" y="410" width="270" height="130" as="geometry">
                        <mxRectangle x="450" y="120" width="80" height="30" as="alternateBounds"/>
                    </mxGeometry>
                </mxCell>
                <mxCell id="eIyMs1IFlNH8oR6tzL3q-12" value="" style="shape=partialRectangle;collapsible=0;dropTarget=0;pointerEvents=0;fillColor=none;points=[[0,0.5],[1,0.5]];portConstraint=eastwest;top=0;left=0;right=0;bottom=1;" parent="eIyMs1IFlNH8oR6tzL3q-11" vertex="1">
                    <mxGeometry y="30" width="270" height="30" as="geometry"/>
                </mxCell>
                <mxCell id="eIyMs1IFlNH8oR6tzL3q-13" value="PK" style="shape=partialRectangle;overflow=hidden;connectable=0;fillColor=none;top=0;left=0;bottom=0;right=0;fontStyle=1;" parent="eIyMs1IFlNH8oR6tzL3q-12" vertex="1">
                    <mxGeometry width="30" height="30" as="geometry">
                        <mxRectangle width="30" height="30" as="alternateBounds"/>
                    </mxGeometry>
                </mxCell>
                <mxCell id="eIyMs1IFlNH8oR6tzL3q-14" value="cd_id int IDENTITY (AUTO-INCREMENT)" style="shape=partialRectangle;overflow=hidden;connectable=0;fillColor=none;top=0;left=0;bottom=0;right=0;align=left;spacingLeft=6;fontStyle=5;" parent="eIyMs1IFlNH8oR6tzL3q-12" vertex="1">
                    <mxGeometry x="30" width="240" height="30" as="geometry">
                        <mxRectangle width="240" height="30" as="alternateBounds"/>
                    </mxGeometry>
                </mxCell>
                <mxCell id="eIyMs1IFlNH8oR6tzL3q-15" value="" style="shape=partialRectangle;collapsible=0;dropTarget=0;pointerEvents=0;fillColor=none;points=[[0,0.5],[1,0.5]];portConstraint=eastwest;top=0;left=0;right=0;bottom=0;" parent="eIyMs1IFlNH8oR6tzL3q-11" vertex="1">
                    <mxGeometry y="60" width="270" height="30" as="geometry"/>
                </mxCell>
                <mxCell id="eIyMs1IFlNH8oR6tzL3q-16" value="FK" style="shape=partialRectangle;overflow=hidden;connectable=0;fillColor=none;top=0;left=0;bottom=0;right=0;" parent="eIyMs1IFlNH8oR6tzL3q-15" vertex="1">
                    <mxGeometry width="30" height="30" as="geometry">
                        <mxRectangle width="30" height="30" as="alternateBounds"/>
                    </mxGeometry>
                </mxCell>
                <mxCell id="eIyMs1IFlNH8oR6tzL3q-17" value="dv_id int NOT NULL" style="shape=partialRectangle;overflow=hidden;connectable=0;fillColor=none;top=0;left=0;bottom=0;right=0;align=left;spacingLeft=6;" parent="eIyMs1IFlNH8oR6tzL3q-15" vertex="1">
                    <mxGeometry x="30" width="240" height="30" as="geometry">
                        <mxRectangle width="240" height="30" as="alternateBounds"/>
                    </mxGeometry>
                </mxCell>
                <mxCell id="eIyMs1IFlNH8oR6tzL3q-18" value="" style="shape=partialRectangle;collapsible=0;dropTarget=0;pointerEvents=0;fillColor=none;points=[[0,0.5],[1,0.5]];portConstraint=eastwest;top=0;left=0;right=0;bottom=0;" parent="eIyMs1IFlNH8oR6tzL3q-11" vertex="1">
                    <mxGeometry y="90" width="270" height="30" as="geometry"/>
                </mxCell>
                <mxCell id="eIyMs1IFlNH8oR6tzL3q-19" value="" style="shape=partialRectangle;overflow=hidden;connectable=0;fillColor=none;top=0;left=0;bottom=0;right=0;" parent="eIyMs1IFlNH8oR6tzL3q-18" vertex="1">
                    <mxGeometry width="30" height="30" as="geometry">
                        <mxRectangle width="30" height="30" as="alternateBounds"/>
                    </mxGeometry>
                </mxCell>
                <mxCell id="eIyMs1IFlNH8oR6tzL3q-20" value="cd_column_name vchar(20) NOT NULL" style="shape=partialRectangle;overflow=hidden;connectable=0;fillColor=none;top=0;left=0;bottom=0;right=0;align=left;spacingLeft=6;" parent="eIyMs1IFlNH8oR6tzL3q-18" vertex="1">
                    <mxGeometry x="30" width="240" height="30" as="geometry">
                        <mxRectangle width="240" height="30" as="alternateBounds"/>
                    </mxGeometry>
                </mxCell>
                <mxCell id="sGaMBZuxSmby_sDo6LSD-4" value="" style="edgeStyle=entityRelationEdgeStyle;fontSize=12;html=1;endArrow=ERzeroToMany;startArrow=ERmandOne;rounded=0;exitX=1;exitY=0.5;exitDx=0;exitDy=0;" parent="1" source="C-vyLk0tnHw3VtMMgP7b-24" target="C-vyLk0tnHw3VtMMgP7b-6" edge="1">
                    <mxGeometry width="100" height="100" relative="1" as="geometry">
                        <mxPoint x="60" y="340" as="sourcePoint"/>
                        <mxPoint x="290" y="260" as="targetPoint"/>
                        <Array as="points">
                            <mxPoint x="420" y="160"/>
                            <mxPoint x="650" y="180"/>
                        </Array>
                    </mxGeometry>
                </mxCell>
                <mxCell id="sGaMBZuxSmby_sDo6LSD-5" value="" style="edgeStyle=entityRelationEdgeStyle;fontSize=12;html=1;endArrow=ERzeroToMany;startArrow=ERmandOne;rounded=0;" parent="1" source="C-vyLk0tnHw3VtMMgP7b-3" target="eIyMs1IFlNH8oR6tzL3q-15" edge="1">
                    <mxGeometry width="100" height="100" relative="1" as="geometry">
                        <mxPoint x="610" y="330" as="sourcePoint"/>
                        <mxPoint x="250" y="330" as="targetPoint"/>
                        <Array as="points">
                            <mxPoint x="480" y="405"/>
                            <mxPoint x="280" y="280"/>
                        </Array>
                    </mxGeometry>
                </mxCell>
                <mxCell id="sGaMBZuxSmby_sDo6LSD-7" value="&lt;&lt;d_name&gt;&gt;_connection " style="shape=table;startSize=30;container=1;collapsible=1;childLayout=tableLayout;fixedRows=1;rowLines=0;fontStyle=1;align=center;resizeLast=1;rounded=1;" parent="1" vertex="1">
                    <mxGeometry x="640" y="190" width="290" height="100" as="geometry"/>
                </mxCell>
                <mxCell id="sGaMBZuxSmby_sDo6LSD-8" value="" style="shape=partialRectangle;collapsible=0;dropTarget=0;pointerEvents=0;fillColor=none;points=[[0,0.5],[1,0.5]];portConstraint=eastwest;top=0;left=0;right=0;bottom=1;" parent="sGaMBZuxSmby_sDo6LSD-7" vertex="1">
                    <mxGeometry y="30" width="290" height="50" as="geometry"/>
                </mxCell>
                <mxCell id="sGaMBZuxSmby_sDo6LSD-9" value="PK" style="shape=partialRectangle;overflow=hidden;connectable=0;fillColor=none;top=0;left=0;bottom=0;right=0;fontStyle=1;" parent="sGaMBZuxSmby_sDo6LSD-8" vertex="1">
                    <mxGeometry width="30" height="50" as="geometry">
                        <mxRectangle width="30" height="50" as="alternateBounds"/>
                    </mxGeometry>
                </mxCell>
                <mxCell id="sGaMBZuxSmby_sDo6LSD-10" value="data_id int NOT NULL&#10;dv_id int NOT NULL" style="shape=partialRectangle;overflow=hidden;connectable=0;fillColor=none;top=0;left=0;bottom=0;right=0;align=left;spacingLeft=6;fontStyle=5;" parent="sGaMBZuxSmby_sDo6LSD-8" vertex="1">
                    <mxGeometry x="30" width="260" height="50" as="geometry">
                        <mxRectangle width="260" height="50" as="alternateBounds"/>
                    </mxGeometry>
                </mxCell>
                <mxCell id="sGaMBZuxSmby_sDo6LSD-40" value="" style="edgeStyle=entityRelationEdgeStyle;fontSize=12;html=1;endArrow=ERzeroToMany;startArrow=ERmandOne;rounded=0;" parent="1" source="C-vyLk0tnHw3VtMMgP7b-14" target="sGaMBZuxSmby_sDo6LSD-8" edge="1">
                    <mxGeometry width="100" height="100" relative="1" as="geometry">
                        <mxPoint x="640" y="220" as="sourcePoint"/>
                        <mxPoint x="640" y="410" as="targetPoint"/>
                        <Array as="points">
                            <mxPoint x="500" y="295"/>
                            <mxPoint x="730" y="315"/>
                        </Array>
                    </mxGeometry>
                </mxCell>
                <mxCell id="sGaMBZuxSmby_sDo6LSD-42" value="" style="edgeStyle=entityRelationEdgeStyle;fontSize=12;html=1;endArrow=ERzeroToMany;startArrow=ERmandOne;rounded=0;exitX=1;exitY=0.5;exitDx=0;exitDy=0;" parent="1" source="C-vyLk0tnHw3VtMMgP7b-3" target="sGaMBZuxSmby_sDo6LSD-8" edge="1">
                    <mxGeometry width="100" height="100" relative="1" as="geometry">
                        <mxPoint x="650" y="370" as="sourcePoint"/>
                        <mxPoint x="650" y="520" as="targetPoint"/>
                        <Array as="points">
                            <mxPoint x="210" y="510"/>
                            <mxPoint x="630" y="280"/>
                            <mxPoint x="440" y="530"/>
                        </Array>
                    </mxGeometry>
                </mxCell>
            </root>
        </mxGraphModel>
    </diagram>
</mxfile>